# xmcd CD database file
#
# Track frame offsets:
#	150
#	16957
#	35939
#	57104
#	81685
#	100226
#	120062
#	138921
#	154551
#	172794
#	187529
#	208690
#	224796
#	244683
#
# Disc length: 3542 seconds
#
# Revision: 0
# Processed by: cddbd v1.5.2PL0 Copyright (c) Steve Scherf et al.
# Submitted via: CDex 1.51
#
DISCID=b60dd40e
DTITLE=Bandari - Relaxation - Nature
DYEAR=1996
DGENRE=New Age
TTITLE0=El Condor Pasa
TTITLE1=Silence
TTITLE2=Raindrops On Your Face
TTITLE3=Golden Wings
TTITLE4=Leonardo Da Vinci
TTITLE5=Tears In Heaven
TTITLE6=On The Maya's Trace
TTITLE7=The Last Unicorn
TTITLE8=The Deep Blue Sea
TTITLE9=Voices
TTITLE10=Viva Forever
TTITLE11=Ortaffa
TTITLE12=Goodbye Little Susy
TTITLE13=Heart Of A Hero
EXTD=YEAR: 1996
EXTT0=
EXTT1=
EXTT2=
EXTT3=
EXTT4=
EXTT5=
EXTT6=
EXTT7=
EXTT8=
EXTT9=
EXTT10=
EXTT11=
EXTT12=
EXTT13=
PLAYORDER=
